<svg width="20" height="20" viewBox="0 0 20 20" fill="none" xmlns="http://www.w3.org/2000/svg">
<path d="M16.8084 7.69165L5.14176 2.87498C4.70032 2.69231 4.21578 2.63994 3.74551 2.72408C3.27524 2.80822 2.83892 3.02534 2.48821 3.34975C2.1375 3.67416 1.88708 4.09226 1.76661 4.55456C1.64613 5.01686 1.66064 5.50401 1.80842 5.95832L3.09176 9.99998L1.77509 14.0416C1.62332 14.4978 1.60627 14.988 1.72598 15.4536C1.8457 15.9191 2.09711 16.3403 2.45009 16.6666C2.90396 17.0875 3.49783 17.3251 4.11676 17.3333C4.4457 17.3331 4.77137 17.268 5.07509 17.1416L16.7834 12.325C17.2394 12.1353 17.629 11.8149 17.9031 11.4041C18.1772 10.9933 18.3234 10.5105 18.3234 10.0167C18.3234 9.5228 18.1772 9.04002 17.9031 8.62921C17.629 8.21839 17.2394 7.89795 16.7834 7.70832L16.8084 7.69165ZM4.46676 15.5833C4.31976 15.644 4.15848 15.6613 4.00196 15.6332C3.84544 15.6052 3.70021 15.5329 3.58342 15.425C3.47341 15.3199 3.39428 15.1866 3.35462 15.0397C3.31496 14.8928 3.31627 14.7379 3.35842 14.5917L4.57509 10.8333H16.0168L4.46676 15.5833ZM4.57509 9.16665L3.33342 5.44165C3.29127 5.29544 3.28996 5.14048 3.32962 4.99358C3.36928 4.84668 3.44841 4.71344 3.55842 4.60832C3.63684 4.52605 3.73127 4.46069 3.83588 4.41626C3.9405 4.37184 4.0531 4.34928 4.16676 4.34998C4.27846 4.3502 4.38899 4.37287 4.49176 4.41665L16.0168 9.16665H4.57509Z" fill="#71767D"/>
</svg>
